<svg xmlns="http://www.w3.org/2000/svg" xml:space="preserve" width="418.40753" height="463.27603" viewBox="0 0 418.40753 463.27602"><path d="m467.353 529.881-.38 2.397-.38 2.271-.63 2.27-.755 2.265-1.01 2.148-1.01 2.017-1.261 2.013-1.387 1.767-1.509 1.764-1.642 1.514-1.636 1.515-1.893 1.384-1.891 1.134-2.017 1.01-2.016.885-2.144.757-2.145.633-2.271.499-2.142.252-.124.252v.25l-.128.383v.25l-.128.38v.25l-.124.252-.125.38-.757 2.017-.882 1.891-1.01 1.764-1.259 1.64-1.386 1.511-1.515 1.39-1.512 1.262-1.764 1.134-1.767.882-1.889.758-1.891.627-2.02.504-2.02.253h-2.016l-2.017-.128-2.143-.25-.882 1.762-1.138 1.77-1.258 1.639-1.385 1.511-1.515 1.26-1.639 1.262-1.64 1.012-1.763.88-1.891.753-1.892.633-2.015.377-1.893.125-2.139.128-2.02-.128-2.019-.377-2.139-.505-.255-.125h-.254l-.25-.128-.252-.127-.378-.125-.255-.125-.25-.126-.25-.125.125.376v.885l-.124 2.145-.256 2.143-.505 2.014-.629 1.892-.885 1.892-.882 1.764-1.137 1.639-1.384 1.515-1.385 1.386-1.514 1.387-1.64 1.135-1.639 1.007-1.891.882-1.889.63-2.017.632-2.02.252-.251 2.144-.633 2.017-.627 1.891-.882 1.892-.884 1.761-1.26 1.64-1.265 1.514-1.509 1.387-1.511 1.387-1.642 1.134-1.765 1.01-1.888.757-2.02.755-2.016.377-2.017.255-2.144.125h-2.396l-1.007 2.02-1.01 2.013-1.26 1.894-1.386 1.764-1.517 1.64-1.64 1.511-1.636 1.512-1.762 1.262-1.893 1.263-2.02 1.009-2.144.88-2.014.884-2.269.502-2.274.505-2.394.252-2.27.125-2.393-.125-2.396-.252-2.142-.505-2.271-.502-2.142-.885-2.019-.88-2.141-1.008-1.767-1.263-1.89-1.262-1.64-1.512-1.638-1.511-1.514-1.64-1.26-1.764-1.259-1.894-1.134-2.014-.885-2.019h-2.521l-2.144-.125-2.017-.255-2.017-.377-2.019-.755-1.891-.757-1.764-1.01-1.637-1.134-1.512-1.387-1.39-1.387-1.386-1.514-1.137-1.64-1.005-1.761-.885-1.892-.632-1.891-.502-2.017-.38-2.144-2.016-.252-2.017-.633-1.892-.63-1.764-.881-1.767-1.007-1.639-1.135-1.384-1.387-1.39-1.386-1.26-1.515-1.13-1.64-1.013-1.763-.88-1.892-.629-1.892-.507-2.014-.25-2.143-.128-2.145v-.252l.128-.253v-.631h-.255l-.253.126-.25.125-.255.125-.249.127-.252.128h-.253l-.255.125-2.139.505-2.019.377-2.017.128-2.144-.128-1.891-.125-2.017-.377-1.891-.633-1.89-.753-1.766-.88-1.637-1.012-1.642-1.263-1.512-1.259-1.39-1.511-1.259-1.64-1.134-1.77-.885-1.76-2.141.249-2.017.128h-2.019l-2.014-.253-2.02-.504-1.89-.627-1.892-.758-1.765-.882-1.764-1.134-1.511-1.262-1.512-1.39-1.39-1.512-1.26-1.64-1.009-1.763-.885-1.891-.754-2.017-.125-.38-.127-.253v-.249l-.128-.38v-.25l-.125-.383v-.25l-.124-.252-2.145-.252-2.268-.5-2.145-.632-2.144-.757-2.016-.885-2.017-1.01-1.891-1.134-1.762-1.384-1.77-1.515-1.639-1.514-1.509-1.764-1.265-1.767-1.259-2.013-1.134-2.017-1.01-2.148-.754-2.265-.633-2.27-.377-2.271-.38-2.397-.125-2.268.125-2.27.252-2.268.383-2.267.63-2.143.627-2.147.884-2.017 1.007-2.016 1.26-2.017 1.262-1.764 1.386-1.767 1.515-1.64 1.764-1.508-.127-.255-.253-.377v-.256l-.125-.252-.125-.25-.127-.255v-.374l-.128-.256-.502-2.014-.507-2.014-.122-2.02.122-2.02.255-2.143.38-1.89.63-1.893.757-1.89.882-1.888 1.134-1.64 1.26-1.639 1.39-1.514 1.508-1.26 1.64-1.265 1.766-1.133 1.892-.88h-.125l-.255-2.02-.125-2.143.125-2.014.255-2.02.502-1.894.63-2.014.757-1.764 1.01-1.77 1.01-1.634 1.259-1.638 1.386-1.39 1.512-1.385 1.64-1.134 1.763-1.14 1.892-.88 2.017-.754h.252l.128-.124h.252l.128-.131-.255-.38-.378-.374-.377-.505-.25-.38-1.264-1.764-.88-1.764-.76-2.02-.629-1.888-.377-2.02-.38-2.013v-2.014l.127-1.895.378-2.02.377-2.019.63-1.888.884-1.764 1.007-1.765 1.012-1.763 1.384-1.514 1.387-1.516-1.007-1.889-.629-1.894-.633-2.02-.377-2.014-.25-2.019v-1.889l.125-2.142.375-1.89.505-2.018.63-1.891.884-1.895 1.01-1.763 1.259-1.639 1.26-1.516 1.514-1.513 1.764-1.385.252-.125.253-.123.25-.256.255-.125.252-.25.253-.125.124-.129.38-.125-.504-2.27-.253-2.269-.128-2.148.128-2.268.128-2.268.501-2.144.502-2.139.636-2.27.88-2.019 1.009-2.013 1.134-2.02 1.262-1.893 1.512-1.765 1.64-1.639 1.638-1.639 2.017-1.384 1.892-1.389 2.144-1.13 2.144-1.015 2.141-.755 2.142-.76 2.271-.373 2.27-.381 2.14-.125h2.275l2.269.25 2.144.256 2.266.504 2.017.629 2.144.88 1.891.89 2.017 1.13.505-.375.38-.38.5-.376.507-.254 1.767-1.265 1.888-1.01 1.892-.754 2.017-.629 2.016-.38 2.02-.25h2.016l2.016.124 1.892.256 2.02.504 1.889.756 1.891.76 1.767 1.003 1.637 1.264 1.639 1.26 1.514 1.51 1.765-1.004 2.016-.637 1.892-.629 2.016-.379 2.016-.12h1.893l2.144.12 1.894.38 1.889.505 1.889.629 1.895.885 1.763 1.01 1.64 1.128 1.512 1.389 1.511 1.516 1.26 1.638.255.506.252.373.252.381.378.379.252-.379.25-.38.128-.374.252-.506 1.26-1.638 1.513-1.516 1.515-1.389 1.64-1.129 1.76-1.01 1.893-.884 1.893-.629 1.89-.506 1.891-.379 2.144-.12h1.892l2.014.12 2.019.38 1.891.628 2.017.637 1.765 1.004 1.514-1.51 1.639-1.26 1.64-1.264 1.766-1.003 1.889-.76 1.891-.756 2.02-.504 2.017-.256 1.891-.125h2.139l1.894.25 2.014.381 2.023.629 1.891.754 1.889 1.01 1.764 1.265.504.254.505.375.378.381.507.375 2.017-1.13 2.016-.89 2.142-.88 2.02-.63 2.265-.503 2.145-.256 2.274-.25h2.264l2.146.125 2.267.38 2.271.374 2.144.76 2.141.755 2.145 1.014 2.143 1.131 1.89 1.389 2.019 1.384 1.64 1.64 1.636 1.638 1.512 1.765 1.264 1.893 1.134 2.02 1.01 2.013.88 2.02.629 2.27.505 2.138.504 2.144.128 2.268.125 2.268-.125 2.148-.253 2.27-.503 2.27.377.124.251.129.128.125.252.25.25.125.253.256.255.123.252.125 1.765 1.385 1.514 1.513 1.26 1.516 1.259 1.639 1.009 1.763.883 1.895.628 1.89.508 2.018.375 1.89.125 2.143v1.889l-.25 2.02-.38 2.013-.63 2.02-.63 1.894-1.01 1.889 1.39 1.516 1.385 1.514 1.01 1.763 1.009 1.765.883 1.764.631 1.888.375 2.02.38 2.02.125 1.894v2.014l-.38 2.013-.375 2.02-.634 1.888-.755 2.02-.88 1.764-1.264 1.764-.25.505-.38.38-.378.505-.292.293.166.087h.126l.253.124h.255l2.014.755 1.894.88 1.765 1.14 1.639 1.133 1.509 1.385 1.39 1.39 1.259 1.638 1.01 1.634 1.01 1.77.753 1.764.63 2.014.505 1.894.255 2.02.122 2.014-.122 2.143-.255 2.02h-.125l1.892.88 1.762 1.133 1.638 1.265 1.515 1.26 1.39 1.514 1.26 1.639 1.133 1.64.883 1.888.754 1.89.633 1.894.377 1.89.252 2.143.127 2.02-.127 2.019-.504 2.013-.505 2.015-.125.256v.374l-.128.255-.122.25-.127.252v.256l-.253.377-.125.255 1.764 1.508 1.512 1.64 1.387 1.767 1.262 1.764 1.262 2.017 1.004 2.016.885 2.017.757 2.147.505 2.143.378 2.267.255 2.268.122 2.27zm-223.035 58.63v1.636l.38 1.515.374 1.511.505 1.514.505 1.385.76 1.264 1.01 1.26 1.004 1.01 1.01 1.009 1.261 1.007 1.263.757 1.384.63 1.514.505 1.51.377 1.516.252 1.637.125h.505l.757-.125h.505l.63-.125.631-.127.503-.128.632-.125.497-.098-.117.478-.13.63-.125.63-.125.63-.127.629v.632l-.125.63v.63l.125 1.642.252 1.509.377 1.514.505 1.514.63 1.385.757 1.264.882 1.26 1.137 1.134 1.007.88 1.262 1.009 1.26.63 1.386.76 1.387.502 1.515.377 1.639.255 1.512.125h1.01l1.006-.125.882-.255.882-.125 1.01-.252.882-.253.757-.374.88-.505.38 2.269.632 2.014.757 2.019 1.01 1.89 1.01 1.769 1.256 1.636 1.387 1.64 1.514 1.386 1.64 1.387 1.764 1.137 1.764 1.005 2.02.884 2.013.63 2.144.505 2.144.252 2.269.125 2.144-.125 2.144-.252 2.144-.505 2.02-.63 1.889-.884 1.891-1.005 1.767-1.137 1.637-1.387 1.511-1.386 1.384-1.64 1.265-1.636 1.01-1.77 1.006-1.889.758-2.02.63-2.013.377-2.269.885.505.757.374 1.006.253.758.252 1.007.125 1.01.255.882.125h1.01l1.514-.125 1.639-.255 1.509-.377 1.39-.502 1.386-.76 1.263-.63 1.258-1.01 1.135-.879 1.007-1.134.882-1.26.76-1.264.63-1.385.501-1.514.378-1.514.255-1.51.125-1.641v-.63l-.125-.63v-.632l-.125-.63-.13-.63-.122-.63-.128-.629-.128-.504.508.124.63.125.5.128.635.127.629.125h.63l.63.125h.63l1.513-.125 1.64-.252 1.514-.377 1.384-.505 1.39-.63 1.26-.757 1.258-1.007 1.01-1.01 1.135-1.01.885-1.259.754-1.264.63-1.385.504-1.514.38-1.511.25-1.515.125-1.637-.125-1.387-.125-1.39-.377-1.383-.38-1.388-.627-1.136-.63-1.26-.76-1.134-.757-1.135-14.623-18.909-1.892 1.13-2.02 1.265-2.143 1.133-2.013 1.132-2.145 1.138-2.144.879-2.141 1.013-2.272.881-2.141.758-2.397.757-2.27.755-2.268.629-2.396.633-2.397.502-2.396.38-2.397.501.13-.376-12.484 33.16-13.112-32.909-2.393-.501-2.397-.383-2.269-.502-2.269-.63-2.396-.632-2.142-.755-2.268-.629-2.145-.883-2.268-.881-2.144-.888-2.144-1.004-2.02-1.013-2.014-1.132-2.02-1.264-2.013-1.134-1.894-1.257-14.623 19.036-.885 1.135-.63 1.134-.63 1.26-.504 1.136-.38 1.388-.375 1.384-.255 1.39zm-52.196-132.63-1.385.63-1.261.878-1.263 1.01-1.006 1.01-1.135 1.133-.882 1.26-.63 1.265-.757 1.379-.377 1.394-.38 1.51-.253 1.514v3.024l.253 1.514.38 1.64.25.504.127.63.377.504.125.625.38.51.25.505.255.505.374.505h-1.134l-.754.125h-.505l-.755.125-.63.13-.504.124-.758.25-1.514.505-1.387.76-1.26.754-1.259.885-1.01 1.129-1.134 1.01-.76 1.26-.754 1.389-.63 1.259-.504 1.514-.38 1.384-.25 1.515v3.154l.25 1.509.38 1.39.38 1.007.374.88.38.887.505.755.505.76.504.751.63.757.63.633-1.892 1.007-1.766 1.262-1.765 1.262-1.511 1.51-1.388 1.514-1.134 1.766-1.134 1.764-.882 1.895-.758 1.886-.63 2.144-.379 2.016-.25 2.145v2.144l.125 2.144.377 2.142.63 2.143.757 2.145.885 2.02 1.132 1.885 1.261 1.642 1.388 1.64 1.511 1.511 1.64 1.26 1.764 1.262 1.894 1.01 1.889.756 1.894.755 2.142.505 2.016.249 2.144.128h2.144l2.145-.25-.13.885-.126.88v2.016l.125.882.13.882.25 1.01.255.881.627 1.512.63 1.39.887 1.386.88 1.257 1.01 1.013 1.134 1.007 1.26.885 1.386.756 1.262.627 1.51.508 1.389.377 1.514.25 1.512.125 1.64-.125 1.511-.25 1.514-.377.63-.252.63-.256.63-.252.504-.25.63-.252.507-.377.502-.377.505-.255v1.136l.128.627v.508l.122.627.13.633.125.629.125.633.632 1.511.632 1.387.88 1.26.884 1.262 1.132 1.01 1.137 1.133 1.26.755 1.26.757 1.261.633 1.512.502 1.39.377 1.511.255h3.152l1.514-.255 1.514-.502 1.384-.502 1.263-.508 1.259-.757 1.137-.755 1.007-1.009 1.007-.882.76-1.01.879-1.131 14.498-19.924-1.764-1.512-1.891-1.636-1.765-1.518-1.764-1.639-1.636-1.764-1.64-1.767-1.514-1.764-1.514-1.761-1.515-1.895-1.384-2.016-1.39-1.892-1.384-2.017-1.259-2.02-1.265-2.016-1.132-2.14-1.137-2.148-35.424-2.013 27.352-22.461.005.021.125-.125-.13.104-.122-.867-.127-.883-.125-.754-.125-.885-.128-.88v-.879l-.124-1.015-.125-.88v-.878l-.128-.885v-1.01l-.127-.885v-6.676l.127-1.39v-1.39l.128-1.508.125-1.39.124-1.385.253-1.514.125-1.39.254-1.384.25-1.384.25-1.39.255-1.383.38-1.39.253-1.385.377-1.39h.125l-21.938-8.19-.63-.255-.63-.25-.631-.254-.755-.125-.63-.125-.757-.125-.632-.125h-2.775l-.626.125h-.757l-.755.125-.635.25-.754.254zm114.858-80.062v-2.642l-.252-1.39-.255-1.39-.502-1.26-.506-1.26-.628-1.257-.758-1.266-1.01-1.26-1.13-1.134-1.139-.885-1.261-.879-1.385-.76-1.384-.628-1.517-.375-1.387-.381-1.511-.125h-1.512l-1.515.125-1.511.25-1.515.38-1.387.505-1.384.755-1.39.885-.504.373-.503.381-.377.379-.504.506-.38.375-.378.504-.377.51-.407.304-.226-.564-.252-.5-.124-.63-.253-.63-.377-.504-.38-.504-.25-.63-.383-.505-1.006-1.26-1.135-1.14-1.134-.879-1.26-.885-1.39-.754-1.384-.634-1.514-.375-1.387-.381-1.512-.25h-1.514l-1.512.25-1.514.256-1.512.375-1.387.51-1.386.753-1.388.885-.756.63-.758.624-.627.635-.63.63-.632.88-.505.634-.507.88-.375.759-1.639-1.514-1.64-1.26-1.639-1.134-2.019-1.008-1.886-.885-1.892-.63-2.144-.38-2.02-.375-2.143-.125-2.144.125-2.017.375-2.016.38-2.144.63-2.014.885-1.892 1.008-1.892 1.135-1.764 1.384-1.64 1.514-1.389 1.635-1.259 1.894-1.01 1.764-1.01 1.894-.629 2.02-.63 2.014-.38 2.02-.25 2.015v2.144l.126 2.139.38 2.145.505 2.02.754 2.017 1.01 2.015-1.01.123-.88.125-.884.256-.882.381-.882.379-.885.506-.882.373-.757.63-1.26 1.01-1.134 1.135-.885 1.133-.879 1.26-.757 1.39-.633 1.383-.377 1.39-.377 1.515-.125 1.515v1.508l.125 1.51.255 1.394.374 1.51.63 1.383.63 1.515.884 1.264.375.506.38.623.505.38.505.505.377.506.507.375.502.379.4.298-.527.211-.502.25-.508.25-.63.25-.501.255-.508.256-.627.499-.505.255-1.262 1.01-1.01 1.134-1.006 1.135-.883 1.259-.756 1.39-.633 1.383-.375 1.515-.38 1.384-.124 1.514v1.515l.124 1.509.253 1.514.377 1.515.635 1.384.625 1.39.887 1.26.88 1.258 1.009 1.01 1.132.884 1.012.88 1.262.635 1.26.624 1.259.51 1.262.375 22.944 8.451.885-2.398.882-2.27 1.01-2.269 1.004-2.268 1.14-2.27 1.134-2.143 1.26-2.02 1.383-2.144 1.266-2.014 1.508-2.018 1.387-2.02 1.518-1.89 1.639-1.888 1.509-1.895 1.639-1.759 1.64-1.77h.127l-9.079-34.163 29.757 19.035 2.139-1.01 2.019-1.007 2.269-1.01 2.144-.756 2.269-.885 2.144-.878 2.394-.635 2.272-.625 2.266-.63 2.272-.505 2.396-.504 2.521-.38 2.267-.374 2.524-.256 2.393-.125 2.524-.13zm3.528 31.127-4.114.137-3.987.266-3.981.53-3.99.66-3.851.933-3.721 1.062-3.715 1.33-3.589 1.33-3.585 1.592-3.322 1.856-3.452 1.86-3.186 2.13-3.19 2.257-2.923 2.389-2.92 2.393-2.79 2.655-2.657 2.785-2.39 2.926-2.525 2.924-2.125 3.187-2.125 3.186-1.726 3.323-1.86 3.452-1.592 3.588-1.33 3.582-1.194 3.723-1.2 3.855-.928 3.718-.662 3.984-.402 3.984-.396 4.115-.136 3.984.136 4.12.396 3.985.402 4.119.662 3.72.928 3.848 1.2 3.719 1.193 3.853 1.33 3.588 1.594 3.452 1.859 3.455 1.726 3.32 2.125 3.19 2.125 3.183 2.524 3.058 2.391 2.788 2.658 2.793 2.79 2.654 2.92 2.523 2.923 2.392 3.189 2.258 3.186 1.992 3.452 1.86 3.322 1.86 3.585 1.594 3.589 1.33 3.715 1.325 3.72 1.06 3.852.932 3.99.667 3.98.53 3.988.263 4.114.135 3.985-.135 4.12-.264 3.85-.53 3.988-.666 3.848-.932 3.718-1.06 3.722-1.326 3.588-1.329 3.585-1.593 3.452-1.862 3.322-1.86 3.322-1.991 3.056-2.258 2.923-2.392 2.92-2.523 2.79-2.654 2.657-2.793 2.519-2.788 2.391-3.058 2.128-3.184 2.125-3.19 1.862-3.319 1.856-3.455 1.596-3.452 1.327-3.588 1.197-3.853 1.194-3.719.928-3.849.668-3.72.397-4.118.398-3.985.133-4.12-.133-3.984-.398-4.115-.397-3.984-.668-3.984-.928-3.718-1.194-3.855-1.197-3.723-1.327-3.582-1.596-3.588-1.856-3.452-1.862-3.323-2.125-3.186-2.128-3.187-2.391-2.924-2.519-2.926-2.657-2.785-2.79-2.655-2.92-2.393-2.923-2.389-3.056-2.258-3.322-2.128-3.322-1.861-3.452-1.856-3.585-1.592-3.588-1.33-3.722-1.33-3.718-1.062-3.848-.934-3.987-.658-3.851-.531-4.12-.266zm117.002 25.86-.124-1.514-.38-1.384-.377-1.515-.632-1.384-.755-1.39-.885-1.258-1.007-1.135-1.01-1.135-1.261-1.01-.505-.254-.63-.5-.502-.255-.508-.255-.63-.25-.504-.25-.502-.25-.524-.21.397-.3.504-.378.505-.375.38-.506.502-.504.505-.38.377-.624.38-.506.885-1.263.627-1.516.632-1.383.374-1.51.256-1.394.127-1.51v-1.508l-.127-1.515-.38-1.514-.378-1.39-.631-1.384-.755-1.39-.882-1.26-.883-1.133-1.137-1.135-1.256-1.01-.76-.63-.882-.373-.882-.506-.885-.379-.88-.38-.884-.257-.885-.125-1.004-.123 1.004-2.015.76-2.018.505-2.02.378-2.144.126-2.139v-2.144l-.254-2.016-.377-2.02-.627-2.013-.636-2.02-1.004-1.894-1.01-1.764-1.259-1.894-1.39-1.635-1.639-1.514-1.763-1.384-1.893-1.135-1.892-1.008-2.018-.885-2.139-.63-2.02-.38-2.016-.375-2.147-.125-2.138.125-2.02.375-2.143.38-1.893.63-1.891.885-2.014 1.008-1.77 1.135-1.636 1.26-1.637 1.513-.38-.76-.505-.879-.504-.634-.63-.88-.63-.63-.632-.635-.757-.623-.755-.63-1.384-.886-1.39-.754-1.383-.51-1.515-.374-1.515-.256-1.514-.25h-1.512l-1.512.25-1.39.38-1.508.376-1.39.634-1.384.754-1.26.885-1.136.879-1.135 1.14-1.007 1.26-.38.504-.254.631-.375.504-.255.504-.374.63-.128.63-.253.5-.222.564-.407-.305-.38-.51-.378-.503-.377-.375-.505-.506-.38-.379-.502-.38-.507-.374-1.384-.885-1.385-.755-1.39-.504-1.513-.381-1.51-.25-1.517-.125h-1.511l-1.515.125-1.384.38-1.514.376-1.39.629-1.384.76-1.263.878-1.133.885-1.132 1.135-1.01 1.26-.758 1.265-.632 1.258-.502 1.26-.504 1.26-.253 1.388-.252 1.39v26.47h.127l2.394.13 2.4.125 2.518.256 2.394.373 2.396.381 2.397.504 2.268.506 2.27.629 2.268.625 2.275.635 2.266.878 2.266.885 2.147.756 2.016 1.01 2.142 1.008 2.144 1.01h.127l29.879-19.036-9.203 34.164v.125l1.64 1.644 1.638 1.634 1.515 1.765 1.515 1.77 1.383 1.888 1.388 1.765 1.387 1.894 1.39 2.014 1.253 1.894 1.14 2.014 1.135 2.014 1.133 2.02 1.01 2.143 1.004 2.144.885 2.144.885 2.27v-.126l23.699-6.432 1.265-.374 1.256-.51 1.262-.625 1.26-.635 1.01-.88 1.133-.884 1.01-1.01.883-1.259.882-1.26.63-1.39.632-1.383.377-1.515.255-1.514.124-1.51zm32.906 93.297-.252-2.145-.378-2.016-.63-2.144-.757-1.886-.882-1.895-1.135-1.764-1.136-1.766-1.385-1.515-1.517-1.509-1.764-1.262-1.761-1.262-1.892-1.007.63-.633.63-.757.504-.751.505-.76.505-.755.374-.887.38-.88.38-1.008.375-1.39.254-1.508v-3.155l-.254-1.514-.374-1.384-.505-1.514-.63-1.26-.755-1.389-.76-1.26-1.135-1.01-1.008-1.128-1.26-.885-1.259-.754-1.39-.76-1.514-.505-.755-.25-.505-.125-.629-.13-.63-.124h-.63l-.76-.125h-1.134l.38-.505.253-.505.252-.505.38-.51.124-.625.377-.504.128-.63.25-.505.38-1.64.25-1.514v-3.023l-.25-1.514-.38-1.51-.378-1.394-.756-1.38-.63-1.264-.882-1.26-1.137-1.133-1.01-1.01-1.256-1.01-1.262-.879-1.388-.63-1.512-.505-.756-.254-.632-.25-.755-.125h-.757l-.627-.125h-2.774l-.635.125-.755.125-.63.125-.76.125-.629.254-.63.25-.63.255-22.57 6.172.38 1.514.381 1.515.504 1.384.25 1.514.38 1.515.253 1.514.252 1.51.25 1.644.255 1.51.125 1.513.252 1.515v1.633l.128 1.515.125 1.64v6.931l-.125.885v1.895l-.128.879-.127.879v1.015l-.125.754-.125 1.005-.13.885-.125.754-.125.883-.109.774-.016-.01v.124l.016-.114 27.466 22.554-35.429 2.013-.125-.122-1.128 2.27-1.14 2.14-1.26 2.142-1.26 2.02-1.388 2.021-1.388 2.017-1.512 1.891-1.513 1.892-1.512 1.89-1.643 1.763-1.636 1.765-1.764 1.766-1.765 1.637-1.891 1.639-1.764 1.642-1.832 1.463-.063-.079v.128l.063-.049 15.068 19.593.882 1.13.758 1.01 1.009.883 1.007 1.01 1.134.754 1.26.757 1.265.508 1.384.502 1.514.502 1.515.256h3.148l1.514-.256 1.385-.377 1.516-.502 1.257-.633 1.265-.757 1.26-.755 1.133-1.134 1.135-1.01.885-1.261.879-1.26.63-1.387.635-1.511.124-.633.125-.629.125-.633.125-.627v-.508l.13-.627v-1.136l.505.255.5.377.505.378.635.251.624.25.51.252.628.256.631.252 1.515.377 1.509.25 1.64.125 1.514-.125 1.512-.25 1.387-.377 1.514-.508 1.387-.627 1.262-.756 1.26-.885 1.133-1.007 1.007-1.013.883-1.256.885-1.387.629-1.39.63-1.512.254-.881.25-1.01.128-.882.122-.882v-2.017l-.122-.88-.128-.884 2.145.25h2.143l2.145-.128 2.017-.249 2.14-.505 1.895-.755 1.888-.757 1.895-1.01 1.762-1.261 1.636-1.26 1.517-1.512 1.385-1.64 1.261-1.64 1.135-1.887.882-2.02.757-2.144.63-2.143.38-2.142.125-2.144z" style="fill:#bbb100;fill-opacity:1;fill-rule:nonzero;stroke:none" transform="matrix(1.33333 0 0 -1.33333 -204.892 866.543)"/><path d="M365.912 436.235a74.65 74.65 0 0 1 16.746 30.37c-33.697 5.998-59.286 35.423-59.286 70.844a72 72 0 0 0 3.485 22.146 75 75 0 0 1-16.316 1.805 75 75 0 0 1-16.532-1.854 71.9 71.9 0 0 0 3.469-22.097c0-35.346-25.477-64.715-59.063-70.806a74.7 74.7 0 0 1 16.64-30.277c13.206 15.877 33.106 25.989 55.372 25.989 22.33 0 42.279-10.167 55.485-26.12" style="fill:#bbb100;fill-opacity:1;fill-rule:nonzero;stroke:none" transform="matrix(1.33333 0 0 -1.33333 -204.892 866.543)"/><text x="209.20" y="445" text-anchor="middle" font-family="'Noto Sans KR', 'Malgun Gothic', sans-serif" font-size="36" font-weight="700" fill="#bbb100">하온 노동법률사무소</text></svg>